<svg width="360" height="360" viewBox="0 0 360 360" xmlns="http://www.w3.org/2000/svg">
  <g fill="none" stroke="#208362" stroke-width="2.2" stroke-linecap="round" stroke-linejoin="round" opacity=".18">
    <path d="M36 34c0-9 7-16 16-16h42c9 0 16 7 16 16v22c0 9-7 16-16 16H69L48 86l5-14h-1c-9 0-16-7-16-16V34Z"/>
    <path d="M59 43h31M59 56h19"/>
    <path d="M178 25c15 2 29 14 32 29M178 43c8 1 15 8 17 16"/>
    <path d="M212 92c-17 16-38 17-58 1-8-6-14-16-18-27l16-9 13 21 16-7 12 19 19 2Z"/>
    <circle cx="300" cy="48" r="15"/>
    <path d="M293 48h14M300 41v14"/>
    <path d="M46 150c19-16 41-16 60 0M55 167c13-10 29-10 42 0M70 183h11"/>
    <path d="M214 150l23-24 23 24M237 126v66"/>
    <path d="M310 141c0 13-10 23-23 23s-23-10-23-23 10-23 23-23 23 10 23 23Z"/>
    <path d="M276 138c5 6 17 6 22 0"/>
    <path d="M280 131h.1M294 131h.1"/>
    <path d="M134 232c10-14 30-17 43-8 12 9 15 25 6 37-9 14-29 17-43 8l-18 3 7-16c-4-8-3-17 5-24Z"/>
    <path d="M40 294l39-24 13 23-39 24-17-2 4-21Z"/>
    <path d="M182 298c17-14 40-14 57 0M192 314c11-9 27-9 38 0M208 330h8"/>
    <path d="M299 279l31-18 11 20-31 18-14-1 3-19Z"/>
    <path d="M15 225c0-8 6-14 14-14h28c8 0 14 6 14 14v17c0 8-6 14-14 14H43l-17 11 4-11h-1c-8 0-14-6-14-14v-17Z"/>
    <path d="M150 126l18-19 18 19M168 107v43"/>
    <path d="M267 220c0-8 6-14 14-14h27c8 0 14 6 14 14v17c0 8-6 14-14 14h-14l-17 11 4-11c-8 0-14-6-14-14v-17Z"/>
  </g>
</svg>
